<svg width="120" height="60" viewBox="0 0 120 60" fill="none" xmlns="http://www.w3.org/2000/svg">
<path d="M110 30C110 35.9 104.9 39.7 99.8 39.7C94.4 39.7 89.6 35.4 89.6 30C89.6 24.2 94.8 20.3 99.9 20.3C102.3 20.3 104.8 21.2 106.6 22.8C108.7 24.5 110 27.2 110 30ZM106.8 30C106.8 24.9 102.3 23.2 99.8 23.2C95.1 23.2 92.8 27 92.8 30C92.8 34.6 96.8 36.8 99.8 36.8C103.5 36.8 106.8 33.9 106.8 30Z" fill="white" fill-opacity="0.5"/>
<path d="M87.1 20.4C87.9 20.4 88.8 20.9 88.8 21.8C88.8 21.9 88.7 22.1 88.7 22.2L81.5 38.7C81.3 39.2 80.6 39.5 80.1 39.5C79.6 39.5 78.9 39.3 78.7 38.7L71.6 22.3C71.5 22.1 71.5 21.9 71.5 21.8C71.5 21 72.3 20.5 73.1 20.5C73.7 20.5 74.4 20.8 74.7 21.5L80 34L85.6 21.4C85.9 20.7 86.5 20.4 87.1 20.4Z" fill="white" fill-opacity="0.5"/>
<path d="M70.4 30.6V38C70.4 38.9 69.6 39.4 68.8 39.4C68 39.4 67.2 38.8 67.2 38V30.3C67.2 26.5 65 23.2 61.7 23.2C58 23.2 56.2 26.8 56.2 30.5V38C56.2 38.9 55.4 39.4 54.6 39.4C53.8 39.4 53 38.8 53 38V30C53 25.1 56.5 20.3 61.7 20.3C65.8 20.3 69 23.4 70 27.1C70.3 28.3 70.4 29.4 70.4 30.6Z" fill="white" fill-opacity="0.5"/>
<path d="M50.1 30C50.1 35.9 45 39.7 39.9 39.7C34.5 39.7 29.7 35.4 29.7 30C29.7 24.2 34.9 20.3 40 20.3C42.4 20.3 44.9 21.2 46.7 22.8C48.9 24.5 50.1 27.2 50.1 30ZM46.9 30C46.9 24.9 42.4 23.2 39.9 23.2C35.2 23.2 32.9 27 32.9 30C32.9 34.6 36.9 36.8 39.9 36.8C43.6 36.8 46.9 33.9 46.9 30Z" fill="white" fill-opacity="0.5"/>
<path d="M10 29.9C10 24 15 20.2 20.2 20.2C21.2 20.2 22.2 20.4 23.2 20.6C24.6 21 27.8 22.5 27.8 23.9C27.8 24.8 26.9 25.3 26.2 25.3C25.8 25.3 25.4 25.2 25.1 24.9C23.7 23.6 22.1 23 20.3 23C16.7 23 13.3 25.9 13.3 29.8C13.3 33.4 16.3 36.7 20.3 36.7C21.8 36.7 23.1 36.2 24.1 35.6C24.3 35.5 24.5 35.3 24.8 35.1C25.3 34.7 25.7 34.3 26.3 34.3C27.2 34.3 27.9 34.9 27.9 35.7C27.9 36.1 27.7 36.5 27.4 36.7C25.5 38.6 22.8 39.6 20.2 39.6C16.9 39.6 13.7 38 11.8 35.2C10.5 33.8 10 32 10 29.9Z" fill="white" fill-opacity="0.5"/>
</svg>
