<svg width="75" height="72" viewBox="0 0 75 72" fill="none" xmlns="http://www.w3.org/2000/svg">
<path d="M73.3756 0H0.977173C0.438235 0 0 0.437624 0 0.975952V70.2275C0 70.7665 0.438845 71.2035 0.977173 71.2035H73.3756C73.9145 71.2035 74.3528 70.7659 74.3528 70.2275V0.975952C74.3528 0.437015 73.9145 0 73.3756 0ZM72.3984 69.2516H1.95469V16.5438H72.3984V69.2516ZM72.3984 14.5922H1.95469V1.95188H72.3984V14.5922Z" fill="#20A6FF"/>
<path d="M8.79279 10.5531C10.3516 10.5531 11.6223 9.2848 11.6223 7.72468C11.6223 6.16455 10.3516 4.89624 8.79279 4.89624C7.23394 4.89624 5.96326 6.16455 5.96326 7.72468C5.96326 9.2848 7.2334 10.5531 8.79279 10.5531ZM8.79279 6.84827C9.2768 6.84827 9.66743 7.24133 9.66743 7.72413C9.66743 8.20691 9.27619 8.59999 8.79279 8.59999C8.30877 8.59999 7.91815 8.20693 7.91815 7.72413C7.91754 7.24196 8.30877 6.84827 8.79279 6.84827Z" fill="#20A6FF"/>
<path d="M17.1881 10.5531C18.747 10.5531 20.0176 9.2848 20.0176 7.72468C20.0176 6.16455 18.7469 4.89624 17.1881 4.89624C15.6293 4.89624 14.3586 6.16455 14.3586 7.72468C14.3586 9.2848 15.6293 10.5531 17.1881 10.5531ZM17.1881 6.84827C17.6721 6.84827 18.0628 7.24133 18.0628 7.72413C18.0628 8.20691 17.6715 8.59999 17.1881 8.59999C16.7041 8.59999 16.3135 8.20693 16.3135 7.72413C16.3135 7.24196 16.7041 6.84827 17.1881 6.84827Z" fill="#20A6FF"/>
<path d="M25.5866 10.5531C27.1454 10.5531 28.4161 9.2848 28.4161 7.72468C28.4161 6.16455 27.1453 4.89624 25.5866 4.89624C24.0277 4.89624 22.757 6.16455 22.757 7.72468C22.757 9.2848 24.0272 10.5531 25.5866 10.5531ZM25.5866 6.84827C26.0706 6.84827 26.4612 7.24133 26.4612 7.72413C26.4612 8.20691 26.07 8.59999 25.5866 8.59999C25.1025 8.59999 24.7119 8.20693 24.7119 7.72413C24.7113 7.24196 25.1025 6.84827 25.5866 6.84827Z" fill="#20A6FF"/>
<path d="M36.8584 11.1016H65.5022C67.0945 11.1016 68.3916 9.80585 68.3916 8.21225V7.7844C68.3916 6.1908 67.0946 4.89502 65.5022 4.89502L36.8584 4.89563C35.2661 4.89563 33.9691 6.19141 33.9691 7.78501V8.21286C33.9697 9.80583 35.2661 11.1016 36.8584 11.1016ZM35.924 7.78444C35.924 7.26808 36.3433 6.84755 36.8584 6.84755H65.5022C66.0173 6.84755 66.4366 7.26808 66.4366 7.78444V8.2123C66.4366 8.72866 66.0173 9.14919 65.5022 9.14919H36.8584C36.3433 9.14919 35.924 8.72866 35.924 8.2123V7.78444Z" fill="#20A6FF"/>
<path d="M51.6553 24.9829C51.6077 24.6576 51.4002 24.3774 51.1023 24.2395C50.8045 24.1028 50.456 24.1192 50.1752 24.2956L45.3741 27.2778C45.1642 27.4066 44.7924 27.3169 44.6637 27.1118L43.3191 24.9487C43.1689 24.707 43.2452 24.3884 43.4857 24.2382L48.4179 21.175C48.6895 21.0071 48.861 20.716 48.8781 20.3967C48.8946 20.0775 48.7542 19.7711 48.5015 19.5746C45.7409 17.428 41.8865 17.2266 38.9208 19.0705C38.4515 19.3616 38.0102 19.6985 37.6098 20.0739C35.8747 21.6962 34.9065 24.0179 34.9567 26.3825C32.2943 28.0365 19.679 35.8686 16.9567 37.5611C14.854 36.4704 12.3418 36.3086 10.1201 37.1442C9.61476 37.3346 9.1216 37.5781 8.6443 37.8736C5.6743 39.7187 4.14602 43.26 4.84665 46.6864C4.9089 46.9989 5.12313 47.2607 5.41671 47.3871C5.70724 47.5146 6.04598 47.4896 6.31759 47.3205L11.2541 44.256C11.4592 44.1272 11.8334 44.2182 11.9621 44.4226L13.3043 46.5858C13.4331 46.792 13.3452 47.1674 13.1395 47.295L8.33732 50.2772C8.05838 50.4511 7.88445 50.7539 7.87712 51.0828C7.86735 51.4118 8.02726 51.7231 8.29643 51.9099C9.7387 52.9066 11.4025 53.401 13.0663 53.401C14.8711 53.401 16.6728 52.8193 18.1866 51.662C20.053 50.2387 21.2164 48.1092 21.4288 45.7575C22.9833 44.7944 28.3441 41.4642 32.9785 38.586L40.3203 34.0272C42.5017 34.8615 44.978 34.7639 47.0494 33.7385C50.3349 32.1132 52.1842 28.5944 51.6552 24.983L51.6553 24.9829ZM46.1824 31.9891C44.48 32.8308 42.4061 32.8534 40.6422 32.0453C40.373 31.919 40.0581 31.9263 39.7981 32.0581C39.7859 32.0642 31.9484 36.9281 31.9484 36.9281C26.5229 40.2967 20.0984 44.2872 19.9745 44.3622C19.6931 44.5349 19.5167 44.8389 19.5094 45.1678C19.452 47.1081 18.5176 48.9556 17.0014 50.1105C15.1991 51.4893 12.8633 51.8103 10.8106 51.0388L14.1694 48.9545C14.7297 48.6065 15.1203 48.0615 15.2705 47.4206C15.4206 46.7773 15.3114 46.1145 14.9628 45.5553L13.6207 43.3922C13.2728 42.8319 12.7265 42.4413 12.0832 42.2911C11.4442 42.1422 10.782 42.2502 10.2217 42.5988L6.63151 44.8266C6.6962 42.6989 7.81865 40.6847 9.67291 39.5336C10.0404 39.3047 10.4236 39.1186 10.8076 38.9721C12.6649 38.2763 14.7766 38.4844 16.4668 39.5275C16.7835 39.7204 17.1846 39.7204 17.5013 39.5226C17.7278 39.3798 36.0232 28.0181 36.4779 27.736C36.7928 27.5407 36.971 27.1831 36.9356 26.8126C36.7452 24.8387 37.4959 22.8532 38.9431 21.4988C39.2459 21.2162 39.5797 20.9581 39.9466 20.731C41.8008 19.5762 44.1061 19.4651 46.0422 20.352L42.4545 22.5798C41.2985 23.2976 40.9409 24.8217 41.6586 25.9788L43.0032 28.142C43.3512 28.7023 43.895 29.0929 44.5383 29.243C45.1749 29.3932 45.8395 29.287 46.4023 28.9367L49.7586 26.8523C49.5407 29.0257 48.2199 30.9807 46.1819 31.989L46.1824 31.9891Z" fill="#20A6FF"/>
<path d="M19.0756 42.6812C19.252 42.6812 19.4309 42.6336 19.5908 42.5347L37.4923 31.4166C37.9501 31.1316 38.0905 30.5297 37.8073 30.072C37.521 29.6106 36.9156 29.4726 36.4627 29.757L18.5611 40.8752C18.1033 41.1602 17.963 41.762 18.2462 42.2198C18.4323 42.5182 18.7491 42.6812 19.0756 42.6812Z" fill="#20A6FF"/>
<path d="M50.8568 50.3812L49.6697 46.2309C49.5556 45.8342 49.2955 45.5065 48.933 45.3063C48.5753 45.1073 48.156 45.0597 47.7599 45.1714L46.046 45.6627C45.7292 45.2446 45.3807 44.8521 45.0066 44.492L45.6883 42.852C45.8507 42.4706 45.8531 42.0488 45.6932 41.6661C45.5358 41.2834 45.2379 40.9868 44.8613 40.8318L40.8782 39.1716C40.4967 39.0117 40.075 39.0129 39.6935 39.1704C39.312 39.3279 39.0142 39.6245 38.8592 40.0023L38.1774 41.6411C37.6433 41.6313 37.1239 41.6563 36.6063 41.7247L35.753 40.172C35.5553 39.8106 35.2287 39.5488 34.8308 39.4328C34.4304 39.3162 34.0154 39.3651 33.6553 39.5628L29.8772 41.6441C29.517 41.8418 29.2528 42.1684 29.138 42.5645C29.0239 42.96 29.069 43.3775 29.2668 43.74L30.1201 45.2927C29.7862 45.6931 29.4835 46.121 29.2094 46.5726L27.4619 46.2736C27.0566 46.1985 26.644 46.2937 26.3102 46.5336C25.9714 46.7716 25.7474 47.1275 25.6785 47.5321L24.9467 51.788C24.8063 52.6236 25.3684 53.422 26.2076 53.5679L27.9619 53.8706C28.0668 54.3797 28.2097 54.8826 28.3934 55.3733L27.0634 56.558C26.7558 56.8321 26.5721 57.2086 26.5483 57.62C26.522 58.0314 26.6606 58.4269 26.9346 58.737L29.807 61.9645C30.377 62.5974 31.3493 62.6474 31.9835 62.0884L33.3159 60.9024C33.781 61.1387 34.265 61.3389 34.7606 61.5018L34.8559 63.2834C34.8986 64.1043 35.5828 64.7433 36.3958 64.7433C36.4245 64.7433 36.4507 64.7421 36.4794 64.7409L40.7916 64.5071C41.6406 64.4583 42.2937 63.7302 42.2479 62.8824L42.1527 61.1039C42.3889 60.9989 42.622 60.886 42.8558 60.7584C43.0847 60.6321 43.3062 60.4947 43.5235 60.3495L44.9749 61.384C45.664 61.8741 46.6265 61.7154 47.1252 61.0215L49.6307 57.504C49.8687 57.1689 49.9621 56.7606 49.8956 56.3541C49.8266 55.9476 49.6026 55.5911 49.2688 55.3543L47.8143 54.3173C47.9431 53.8095 48.031 53.295 48.081 52.7774L49.7924 52.2885C50.1879 52.1762 50.5193 51.9156 50.7196 51.5555C50.921 51.1966 50.9685 50.7798 50.8568 50.3812ZM47.2643 50.9812C47.2643 50.9824 47.2643 50.9824 47.2619 50.9824C46.6399 51.1625 46.1938 51.7216 46.1559 52.3673C46.1181 52.9319 46.0198 53.5044 45.8605 54.0672C45.6866 54.6952 45.9228 55.3678 46.4446 55.7408L47.8033 56.7088L45.772 59.5561L44.4183 58.5906C43.8842 58.2103 43.1695 58.2127 42.6354 58.593C42.4041 58.7554 42.1661 58.9098 41.9158 59.0483C41.6607 59.1875 41.4032 59.3059 41.1456 59.4121C40.5328 59.6623 40.1489 60.2702 40.1873 60.9184L40.2777 62.5811L36.7852 62.7697L36.6948 61.1009C36.657 60.4588 36.2133 59.9016 35.5889 59.716C35.0359 59.5512 34.5018 59.3285 33.9989 59.0556C33.7651 58.9281 33.51 58.8658 33.2555 58.8658C32.8862 58.8658 32.5212 58.997 32.2374 59.2509L30.9929 60.3581L28.6687 57.7451L29.9132 56.6367C30.3947 56.2064 30.5547 55.5094 30.3087 54.9064C30.092 54.3711 29.9321 53.8145 29.8344 53.2555C29.7221 52.6122 29.2192 52.1056 28.5808 51.9957L26.9433 51.7131L27.5372 48.2677L29.165 48.5466C29.8205 48.6632 30.4522 48.3476 30.769 47.7776C31.0528 47.2734 31.391 46.8004 31.7676 46.3725C32.204 45.8812 32.2845 45.1714 31.9726 44.6061L31.1767 43.1578L34.24 41.4714L35.0384 42.9228C35.3509 43.4904 35.999 43.7974 36.6357 43.6943C37.2003 43.6039 37.7801 43.5716 38.3641 43.6027C38.9983 43.6314 39.6178 43.2572 39.868 42.6609L40.5046 41.132L43.7321 42.4778L43.0931 44.0092C42.8453 44.6031 43.0003 45.2989 43.4862 45.7433C43.9079 46.1272 44.2918 46.5599 44.6257 47.0232C44.9998 47.5572 45.6718 47.791 46.3041 47.6213L47.9063 47.1623L48.867 50.5236L47.2643 50.9812Z" fill="#20A6FF"/>
<path d="M35.035 46.5421C33.6214 47.3191 32.5967 48.599 32.1479 50.1474C31.6975 51.6959 31.8788 53.3249 32.6558 54.736C33.4327 56.1484 34.7108 57.1732 36.2598 57.6231C36.8177 57.7854 37.3847 57.866 37.9498 57.866C38.9532 57.866 39.9451 57.6133 40.8484 57.1165C42.262 56.3395 43.2867 55.0596 43.7354 53.5112C44.1859 51.9627 44.0046 50.3337 43.2276 48.9213C41.6218 46.0063 37.9433 44.9418 35.0348 46.5421L35.035 46.5421ZM41.8623 52.9667C41.5571 54.014 40.8638 54.8795 39.9098 55.4049C38.9516 55.9292 37.8481 56.0513 36.8037 55.7486C35.7576 55.4446 34.8922 54.7519 34.3678 53.7961C33.8411 52.8415 33.7196 51.7392 34.0223 50.6925C34.3275 49.6451 35.0209 48.7797 35.9748 48.2542C36.5968 47.9124 37.2694 47.75 37.9347 47.75C39.3769 47.75 40.7759 48.5142 41.5175 49.863C42.0436 50.8176 42.1651 51.9206 41.8623 52.9667Z" fill="#20A6FF"/>
<path d="M50.9413 55.3796C51.0536 55.7336 51.2965 56.0217 51.6279 56.1926L52.61 56.7016C52.5886 56.9677 52.5813 57.2357 52.5862 57.5048L51.5754 57.9565C50.8839 58.2666 50.5671 59.0838 50.8747 59.7882L52.1479 62.6306C52.2956 62.9693 52.5672 63.2299 52.9108 63.3648C53.2636 63.4997 53.6427 63.4899 53.9814 63.3386L54.9922 62.8857C55.1875 63.0694 55.3926 63.2421 55.605 63.4027L55.326 64.4836C55.1399 65.2227 55.5879 65.9784 56.3227 66.1652L59.3501 66.9495C59.4642 66.9781 59.5789 66.9922 59.6906 66.9922C60.3083 66.9922 60.8729 66.5772 61.0377 65.9515L61.3117 64.8834C61.4454 64.8657 61.5766 64.8444 61.7072 64.8181C61.8409 64.7919 61.9721 64.7607 62.1027 64.7278L62.7656 65.6097C63.2233 66.2176 64.0888 66.3477 64.7059 65.885L67.209 64.0052C67.8169 63.5437 67.9359 62.674 67.4782 62.0684L66.8105 61.1804C66.9484 60.9478 67.0723 60.7098 67.1822 60.4687L68.2857 60.5011H68.3309C69.0743 60.5011 69.6895 59.9072 69.7133 59.154L69.8018 56.0357C69.814 55.6652 69.6803 55.3125 69.4252 55.0415C69.1701 54.7723 68.8271 54.6173 68.4572 54.6075L67.3512 54.5764C67.256 54.3249 67.1462 54.0795 67.0247 53.8409L67.74 52.995C68.2332 52.4108 68.1569 51.535 67.5752 51.0437L65.187 49.0221C64.6053 48.5357 63.7282 48.6095 63.237 49.19L62.5265 50.0317C62.269 49.9505 62.0095 49.8827 61.7422 49.8278L61.528 48.7444C61.3778 47.9986 60.6601 47.5133 59.9002 47.6574L56.8344 48.2665C56.0885 48.4142 55.5996 49.1424 55.7449 49.8956L55.9591 50.9753C55.74 51.123 55.5227 51.2854 55.3158 51.4605L54.3338 50.9527C53.6544 50.6091 52.825 50.8703 52.4674 51.5484L51.0349 54.3194C50.8633 54.6514 50.8298 55.0267 50.9415 55.3795L50.9413 55.3796ZM53.8545 55.1489L53.0275 54.7198L53.943 52.9523L54.7627 53.3765C55.2779 53.6457 55.9187 53.5578 56.3429 53.1586C56.6407 52.8821 56.9624 52.6404 57.3036 52.4378C57.8016 52.1363 58.0641 51.5522 57.9518 50.9827L57.7705 50.0745L59.723 49.6869L59.9043 50.6073C60.0233 51.1737 60.4908 51.6095 61.0603 51.6931C61.4582 51.7542 61.847 51.8543 62.212 51.991C62.7601 52.201 63.3894 52.0447 63.7635 51.5955L64.3617 50.8875L65.8802 52.1723L65.2748 52.8864C64.9006 53.3332 64.8481 53.9734 65.1435 54.4751C65.3413 54.8145 65.5036 55.1783 65.6227 55.55C65.8015 56.1103 66.3117 56.4997 66.9001 56.5204L67.8346 56.5467L67.7772 58.5357L66.8452 58.5083H66.8428C66.23 58.4668 65.7344 58.847 65.5152 59.3939C65.3749 59.7552 65.1912 60.1104 64.9672 60.4498C64.6455 60.9411 64.6644 61.5832 65.0148 62.0421L65.5775 62.7904L63.9852 63.9849L63.4249 63.2421C63.077 62.7733 62.4642 62.5805 61.8947 62.7556C61.711 62.8142 61.523 62.8655 61.3228 62.9046C61.1324 62.9436 60.9389 62.9668 60.7485 62.9833C60.1668 63.0309 59.6736 63.4411 59.5186 64.0142L59.2873 64.9175L57.3585 64.4182L57.5947 63.5088C57.7376 62.9448 57.5062 62.3455 57.0247 62.0226C56.7006 61.8011 56.393 61.5423 56.1165 61.2548C55.7136 60.833 55.0819 60.7079 54.5527 60.9435L53.7019 61.325L52.8889 59.5086L53.7422 59.1271C54.2762 58.8891 54.6003 58.333 54.5527 57.7526C54.524 57.3546 54.5362 56.9555 54.5887 56.5557C54.6626 55.9771 54.3672 55.4107 53.8545 55.1489Z" fill="#20A6FF"/>
<path d="M60.224 60.8876C60.4529 60.8876 60.6842 60.865 60.918 60.8198C61.85 60.6337 62.6557 60.0965 63.1849 59.3049C63.7141 58.5133 63.9045 57.5635 63.7189 56.6304C63.5328 55.6972 62.9969 54.8915 62.2053 54.3623C61.4161 53.8355 60.4701 53.6414 59.5307 53.8282C58.5987 54.0144 57.7931 54.5503 57.2615 55.3419C56.7323 56.1335 56.5419 57.0833 56.7274 58.0177C57.0656 59.7114 58.5579 60.8875 60.2242 60.8875L60.224 60.8876ZM58.8843 56.429C59.1223 56.0713 59.4873 55.8284 59.9115 55.7435C60.0165 55.7234 60.1239 55.7124 60.2283 55.7124C60.5432 55.7124 60.8502 55.8052 61.1176 55.984C61.4752 56.2233 61.7182 56.5883 61.8018 57.01V57.0112C61.8854 57.433 61.8018 57.8609 61.5613 58.2185C61.3233 58.5762 60.9583 58.8191 60.5365 58.9027C59.657 59.0755 58.8178 58.5072 58.6439 57.6356C58.5602 57.2157 58.6438 56.7866 58.8843 56.429Z" fill="#20A6FF"/>
</svg>
