<svg width="282" height="57" viewBox="0 0 282 57" fill="none" xmlns="http://www.w3.org/2000/svg">
<path d="M22.464 11.4V11.88H7.344V27.24H21.36V27.72H7.344V45H3.36V11.4H22.464ZM127.839 11.4V11.88H112.719V26.28H126.735V26.76H112.719V44.52H128.895V45H108.735V11.4H127.839Z" fill="white" fill-opacity="0.7"/>
<path d="M30.0191 45C28.7071 45 27.6991 44.712 26.9951 44.136C26.3231 43.56 25.9711 42.984 25.9391 42.408L25.8911 41.592V21H29.2511V41.592C29.2511 42.52 29.4271 43.24 29.7791 43.752C30.1631 44.232 30.5311 44.488 30.8831 44.52L31.4591 44.616H32.9471V45H30.0191ZM26.1791 15.624C25.7951 15.24 25.6031 14.76 25.6031 14.184C25.6031 13.608 25.7951 13.128 26.1791 12.744C26.5631 12.328 27.0431 12.12 27.6191 12.12C28.1951 12.12 28.6751 12.328 29.0591 12.744C29.4751 13.128 29.6831 13.608 29.6831 14.184C29.6831 14.76 29.4751 15.24 29.0591 15.624C28.6751 16.008 28.1951 16.2 27.6191 16.2C27.0431 16.2 26.5631 16.008 26.1791 15.624ZM50.3423 22.68C49.8303 22.264 48.9983 21.912 47.8463 21.624C46.7263 21.336 45.8783 21.192 45.3023 21.192C44.7263 21.192 44.3903 21.192 44.2943 21.192C42.5663 21.224 41.3183 21.672 40.5503 22.536C39.7823 23.368 39.3983 24.312 39.3983 25.368C39.3983 26.424 39.7343 27.32 40.4062 28.056C41.0783 28.76 41.9103 29.32 42.9023 29.736C43.9263 30.12 45.0143 30.568 46.1663 31.08C47.3503 31.592 48.4383 32.12 49.4303 32.664C50.4543 33.176 51.3023 33.944 51.9743 34.968C52.6463 35.96 52.9823 37.208 52.9823 38.712C52.9823 40.216 52.4543 41.496 51.3983 42.552C50.3423 43.608 49.1583 44.312 47.8463 44.664C46.5663 45.016 45.1743 45.192 43.6703 45.192C40.4063 45.192 37.9583 44.472 36.3263 43.032L36.6143 42.744C37.2543 43.352 38.1983 43.848 39.4463 44.232C40.7263 44.616 41.9583 44.808 43.1423 44.808C45.0303 44.808 46.5823 44.296 47.7983 43.272C49.0463 42.216 49.6703 40.92 49.6703 39.384C49.6703 37.816 49.2063 36.568 48.2783 35.64C47.3503 34.68 46.2143 33.944 44.8703 33.432C43.5583 32.888 42.2303 32.36 40.8863 31.848C39.5423 31.304 38.4063 30.568 37.4783 29.64C36.5503 28.68 36.0863 27.576 36.0863 26.328C36.0863 25.08 36.3743 24.072 36.9503 23.304C37.5263 22.504 38.2943 21.944 39.2543 21.624C40.8863 21.08 42.5183 20.808 44.1503 20.808C46.9023 20.808 49.0463 21.32 50.5823 22.344L50.3423 22.68ZM67.4835 45.192C64.1235 45.192 61.3875 44.232 59.2755 42.312C57.1635 40.392 56.1075 37.432 56.1075 33.432C56.1075 29.432 57.1955 26.328 59.3715 24.12C61.5795 21.912 64.3635 20.808 67.7235 20.808C71.1155 20.808 73.8675 21.768 75.9795 23.688C78.0915 25.608 79.1475 28.568 79.1475 32.568C79.1475 36.568 78.0435 39.672 75.8355 41.88C73.6595 44.088 70.8755 45.192 67.4835 45.192ZM67.8195 21.192C65.3875 21.192 63.3715 22.28 61.7715 24.456C60.1715 26.6 59.3715 29.608 59.3715 33.48C59.3715 37.32 60.1075 40.168 61.5795 42.024C63.0515 43.88 65.0035 44.808 67.4355 44.808C69.8675 44.808 71.8835 43.736 73.4835 41.592C75.0835 39.416 75.8835 36.408 75.8835 32.568C75.8835 28.696 75.1475 25.832 73.6755 23.976C72.2035 22.12 70.2515 21.192 67.8195 21.192ZM101.949 45C100.637 45 99.6294 44.712 98.9254 44.136C98.2534 43.56 97.9014 42.984 97.8694 42.408L97.8214 41.592V26.52C97.8214 23.992 97.1654 22.376 95.8534 21.672C95.1814 21.352 94.3494 21.192 93.3574 21.192C91.3094 21.192 89.4694 22.008 87.8374 23.64C86.2054 25.24 85.3894 26.68 85.3894 27.96V45H82.0294V21H85.3894V26.472C85.9334 25.096 86.9414 23.816 88.4134 22.632C89.8854 21.416 91.5014 20.808 93.2614 20.808C95.0214 20.808 96.4454 20.984 97.5334 21.336C98.6534 21.656 99.4694 22.12 99.9814 22.728C100.781 23.72 101.181 25 101.181 26.568V41.592C101.181 42.52 101.357 43.24 101.709 43.752C102.093 44.232 102.477 44.488 102.861 44.52L103.389 44.616H104.877V45H101.949ZM151.965 45C150.653 45 149.645 44.712 148.941 44.136C148.269 43.56 147.917 42.984 147.885 42.408L147.837 41.592V26.52C147.837 23.992 147.181 22.376 145.869 21.672C145.197 21.352 144.365 21.192 143.373 21.192C141.325 21.192 139.485 22.008 137.853 23.64C136.221 25.24 135.405 26.68 135.405 27.96V45H132.045V21H135.405V26.472C135.949 25.096 136.957 23.816 138.429 22.632C139.901 21.416 141.517 20.808 143.277 20.808C145.037 20.808 146.461 20.984 147.549 21.336C148.669 21.656 149.485 22.12 149.997 22.728C150.797 23.72 151.197 25 151.197 26.568V41.592C151.197 42.52 151.373 43.24 151.725 43.752C152.109 44.232 152.493 44.488 152.877 44.52L153.405 44.616H154.893V45H151.965ZM156.602 33.864C156.602 29.704 157.61 26.488 159.626 24.216C161.642 21.944 164.666 20.808 168.698 20.808C171.674 20.808 174.698 21.336 177.77 22.392V45.576C177.738 53.192 174.41 57 167.786 57C164.138 57 161.018 55.816 158.426 53.448L158.762 53.16C161.514 55.464 164.522 56.616 167.786 56.616C172.202 56.616 174.41 52.936 174.41 45.576V40.824C173.802 41.944 172.794 42.936 171.386 43.8C169.978 44.664 168.314 45.096 166.394 45.096C159.866 44.936 156.602 41.192 156.602 33.864ZM166.442 44.712C168.586 44.712 170.426 44.136 171.962 42.984C173.498 41.832 174.314 40.696 174.41 39.576V22.632C172.106 21.672 170.154 21.192 168.554 21.192C165.706 21.192 163.562 22.312 162.122 24.552C160.682 26.76 159.962 29.864 159.962 33.864C159.962 41.096 162.122 44.712 166.442 44.712ZM188.644 45C187.332 45 186.324 44.712 185.62 44.136C184.948 43.56 184.596 42.984 184.564 42.408L184.516 41.592V21H187.876V41.592C187.876 42.52 188.052 43.24 188.404 43.752C188.788 44.232 189.156 44.488 189.508 44.52L190.084 44.616H191.572V45H188.644ZM184.804 15.624C184.42 15.24 184.228 14.76 184.228 14.184C184.228 13.608 184.42 13.128 184.804 12.744C185.188 12.328 185.668 12.12 186.244 12.12C186.82 12.12 187.3 12.328 187.684 12.744C188.1 13.128 188.308 13.608 188.308 14.184C188.308 14.76 188.1 15.24 187.684 15.624C187.3 16.008 186.82 16.2 186.244 16.2C185.668 16.2 185.188 16.008 184.804 15.624ZM214.403 45C213.091 45 212.083 44.712 211.379 44.136C210.707 43.56 210.355 42.984 210.323 42.408L210.275 41.592V26.52C210.275 23.992 209.619 22.376 208.307 21.672C207.635 21.352 206.803 21.192 205.811 21.192C203.763 21.192 201.923 22.008 200.291 23.64C198.659 25.24 197.843 26.68 197.843 27.96V45H194.483V21H197.843V26.472C198.387 25.096 199.395 23.816 200.867 22.632C202.339 21.416 203.955 20.808 205.715 20.808C207.475 20.808 208.899 20.984 209.987 21.336C211.107 21.656 211.923 22.12 212.435 22.728C213.235 23.72 213.635 25 213.635 26.568V41.592C213.635 42.52 213.811 43.24 214.163 43.752C214.547 44.232 214.931 44.488 215.315 44.52L215.843 44.616H217.331V45H214.403ZM222.543 33.288C222.543 37.256 223.231 40.168 224.607 42.024C226.015 43.88 227.855 44.808 230.127 44.808C233.327 44.808 236.175 44.328 238.671 43.368L238.815 43.704C236.255 44.696 233.359 45.192 230.127 45.192C226.927 45.192 224.319 44.232 222.303 42.312C220.287 40.392 219.279 37.432 219.279 33.432C219.279 29.432 220.335 26.328 222.447 24.12C224.559 21.912 227.247 20.808 230.511 20.808C233.135 20.808 235.343 21.592 237.135 23.16C238.927 24.728 239.823 27.048 239.823 30.12C239.823 30.28 239.823 30.44 239.823 30.6H222.687C222.591 31.464 222.543 32.36 222.543 33.288ZM236.559 30.216C236.527 27.144 235.935 24.872 234.783 23.4C233.631 21.928 232.143 21.192 230.319 21.192C228.495 21.192 226.863 21.992 225.423 23.592C224.015 25.192 223.119 27.4 222.735 30.216H236.559ZM246.497 33.288C246.497 37.256 247.185 40.168 248.561 42.024C249.969 43.88 251.809 44.808 254.081 44.808C257.281 44.808 260.129 44.328 262.625 43.368L262.769 43.704C260.209 44.696 257.313 45.192 254.081 45.192C250.881 45.192 248.273 44.232 246.257 42.312C244.241 40.392 243.233 37.432 243.233 33.432C243.233 29.432 244.289 26.328 246.401 24.12C248.513 21.912 251.201 20.808 254.465 20.808C257.089 20.808 259.297 21.592 261.089 23.16C262.881 24.728 263.777 27.048 263.777 30.12C263.777 30.28 263.777 30.44 263.777 30.6H246.641C246.545 31.464 246.497 32.36 246.497 33.288ZM260.513 30.216C260.481 27.144 259.889 24.872 258.737 23.4C257.585 21.928 256.097 21.192 254.273 21.192C252.449 21.192 250.817 21.992 249.377 23.592C247.969 25.192 247.073 27.4 246.689 30.216H260.513ZM274.901 23.064V22.056C273.461 22.632 272.149 23.8 270.965 25.56C269.781 27.288 269.157 28.92 269.093 30.456V45H265.733V21H269.093V28.632C269.605 26.776 270.581 25.032 272.021 23.4C273.461 21.736 275.093 20.872 276.917 20.808H277.109C277.749 20.808 278.277 21.032 278.693 21.48C279.141 21.896 279.365 22.424 279.365 23.064C279.365 23.704 279.141 24.232 278.693 24.648C278.277 25.064 277.749 25.272 277.109 25.272C276.469 25.272 275.941 25.064 275.525 24.648C275.109 24.232 274.901 23.704 274.901 23.064Z" fill="#20A6FF"/>
</svg>
