<svg width="120" height="60" viewBox="0 0 120 60" fill="none" xmlns="http://www.w3.org/2000/svg">
<path d="M23.14 41.97C21.61 42.24 20.054 42.32 18.444 42.534L13.534 28.149V43.15L9.16 43.75V16.26H13.24L18.822 31.853V16.26H23.142L23.14 41.97ZM31.594 26.324L37.337 26.244V30.538L31.594 30.618V37.005L39.189 36.549V40.682L27.299 41.622V16.26H39.189V20.554H31.594V26.324ZM55.157 20.554H50.7V40.306L46.406 40.36V20.553H41.951V16.26H55.155L55.157 20.554ZM62.135 26.029H68.012V30.323H62.135V40.065H57.92V16.26H69.917V20.554H62.134L62.135 26.029ZM76.895 36.307L84.195 36.683V40.923L72.6 40.36V16.26H76.894L76.895 36.307ZM87.818 41.217L92.031 41.539V16.26H87.818V41.217ZM110.844 16.259L105.396 29.329L110.844 43.739L106.014 42.961L102.928 35.017L99.788 42.317L95.172 41.753L100.7 29.166L95.708 16.256H100.324L103.142 23.476L106.148 16.256L110.844 16.259Z" fill="white" fill-opacity="0.5"/>
</svg>
