<svg width="120" height="60" viewBox="0 0 120 60" fill="none" xmlns="http://www.w3.org/2000/svg">
<path d="M22.123 11.828C12.07 11.828 3.952 19.97 3.952 30C3.952 40.052 12.092 48.172 22.124 48.172C32.176 48.172 40.296 40.032 40.296 30C40.296 19.968 32.156 11.828 22.124 11.828H22.123ZM30.46 38.054C30.134 38.597 29.44 38.749 28.897 38.424C24.62 35.819 19.257 35.234 12.917 36.664C12.309 36.794 11.701 36.424 11.571 35.817C11.441 35.21 11.811 34.601 12.418 34.471C19.344 32.886 25.292 33.559 30.068 36.491C30.611 36.817 30.784 37.511 30.458 38.054H30.46ZM32.674 33.104C32.262 33.777 31.394 33.972 30.72 33.582C25.835 30.586 18.39 29.718 12.614 31.454C11.854 31.671 11.074 31.259 10.854 30.52C10.637 29.76 11.049 28.98 11.809 28.76C18.409 26.763 26.615 27.718 32.239 31.16C32.889 31.55 33.086 32.42 32.673 33.092L32.674 33.104ZM32.869 27.937C27.007 24.463 17.346 24.137 11.745 25.831C10.845 26.113 9.9 25.591 9.617 24.701C9.334 23.811 9.857 22.856 10.747 22.573C17.173 20.619 27.855 21.01 34.585 25.005C35.388 25.483 35.649 26.525 35.171 27.328C34.737 28.153 33.673 28.414 32.871 27.936L32.869 27.937Z" fill="white" fill-opacity="0.5"/>
<path d="M49.7494 29.4564C46.65 28.7296 46.1157 28.1952 46.1157 27.1051C46.1157 26.0791 47.0775 25.3951 48.5097 25.3951C49.899 25.3951 51.2884 25.9295 52.7419 26.9982C52.7847 27.041 52.8488 27.041 52.8915 27.041C52.9557 27.041 52.9984 26.9982 53.0198 26.9555L54.5374 24.818C54.5675 24.7751 54.5799 24.7222 54.5719 24.6704C54.5639 24.6187 54.5363 24.572 54.4947 24.5401C52.7633 23.1507 50.8182 22.4881 48.5524 22.4881C45.2179 22.4881 42.888 24.4974 42.888 27.3616C42.888 30.4396 44.8973 31.5297 48.3814 32.3634C51.3312 33.0474 51.8442 33.6245 51.8442 34.6291C51.8442 35.762 50.8395 36.4674 49.215 36.4674C47.4195 36.4674 45.9447 35.8689 44.2988 34.4367C44.256 34.394 44.1919 34.394 44.1492 34.394C44.085 34.394 44.0423 34.4154 44.0209 34.4581L42.3323 36.4674C42.2682 36.5529 42.2682 36.6811 42.3537 36.7452C44.2774 38.4552 46.6287 39.353 49.1723 39.353C52.7633 39.353 55.0932 37.3865 55.0932 34.3512C55.0504 31.7862 53.5114 30.3755 49.7494 29.4564ZM63.1943 26.3997C61.6339 26.3997 60.3514 27.0196 59.304 28.2807V26.87C59.304 26.7631 59.2185 26.6776 59.1117 26.6776H56.3543C56.2474 26.6776 56.1619 26.7631 56.1619 26.87V42.602C56.1619 42.7089 56.2474 42.7944 56.3543 42.7944H59.1117C59.2185 42.7944 59.304 42.7089 59.304 42.602V37.643C60.3514 38.8186 61.6339 39.3957 63.1943 39.3957C66.0799 39.3957 69.0297 37.1727 69.0297 32.8977C69.0083 28.6441 66.0799 26.3997 63.1943 26.3997ZM65.802 32.8977C65.802 35.078 64.4554 36.5742 62.553 36.5742C60.6507 36.5742 59.2399 34.9925 59.2399 32.8977C59.2399 30.803 60.672 29.2212 62.553 29.2212C64.434 29.2212 65.802 30.7602 65.802 32.8977ZM76.5323 26.3997C72.813 26.3997 69.8846 29.264 69.8846 32.9405C69.8846 36.5742 72.7917 39.4171 76.4895 39.4171C80.2302 39.4171 83.1585 36.5529 83.1585 32.8977C83.1585 29.264 80.2515 26.3997 76.5323 26.3997ZM76.5323 36.5956C74.5444 36.5956 73.0482 34.9925 73.0482 32.8977C73.0482 30.7816 74.5017 29.2426 76.4895 29.2426C78.4774 29.2426 79.995 30.8457 79.995 32.9619C79.9737 35.0566 78.5201 36.5956 76.5323 36.5956ZM91.11 26.6562H88.0748V23.5355C88.0748 23.4286 87.9893 23.3431 87.8824 23.3431H85.125C85.0182 23.3431 84.9327 23.4286 84.9327 23.5355V26.6562H83.6074C83.5005 26.6562 83.415 26.7417 83.415 26.8486V29.2212C83.415 29.3281 83.5005 29.4136 83.6074 29.4136H84.9327V35.5696C84.9327 38.0491 86.1724 39.3102 88.6091 39.3102C89.5924 39.3102 90.426 39.0965 91.1955 38.669C91.2597 38.6262 91.3024 38.5621 91.3024 38.498V36.2322C91.3024 36.1681 91.2597 36.104 91.2169 36.0612C91.1528 36.0185 91.0887 36.0185 91.0245 36.0612C90.4902 36.3391 89.9772 36.446 89.4 36.446C88.5023 36.446 88.1175 36.0399 88.1175 35.1421V29.435H91.1528C91.2597 29.435 91.3452 29.3495 91.3452 29.2426V26.87C91.3238 26.7417 91.2383 26.6562 91.11 26.6562ZM101.733 26.6776V26.2929C101.733 25.16 102.161 24.6684 103.123 24.6684C103.7 24.6684 104.17 24.7752 104.683 24.9462C104.747 24.9676 104.811 24.9462 104.876 24.9249C104.918 24.8821 104.961 24.818 104.961 24.7539V22.424C104.961 22.3385 104.897 22.253 104.811 22.2316C104.256 22.0606 103.572 21.911 102.503 21.911C99.9379 21.911 98.5913 23.3431 98.5913 26.0791V26.6562H97.266C97.1592 26.6562 97.0523 26.7417 97.0523 26.8486V29.2426C97.0523 29.3495 97.1378 29.435 97.266 29.435H98.5913V38.9255C98.5913 39.0324 98.6768 39.1179 98.7837 39.1179H101.541C101.648 39.1179 101.733 39.0324 101.733 38.9255V29.435H104.32L108.274 38.9255C107.825 39.9301 107.376 40.1225 106.778 40.1225C106.286 40.1225 105.773 39.9729 105.26 39.695C105.218 39.6736 105.153 39.6736 105.089 39.6736C105.047 39.695 104.982 39.7377 104.961 39.7805L104.021 41.8325C103.978 41.9394 104.021 42.0462 104.106 42.089C105.089 42.6234 105.966 42.8371 107.056 42.8371C109.108 42.8371 110.219 41.8752 111.224 39.3316L116.033 26.9341C116.055 26.87 116.055 26.8059 116.012 26.7417C115.969 26.6776 115.905 26.6562 115.841 26.6562H112.955C112.87 26.6562 112.784 26.7204 112.763 26.7845L109.813 35.2062L106.586 26.7631C106.564 26.6776 106.479 26.6349 106.393 26.6349H101.733V26.6776ZM95.5774 26.6562H92.82C92.7132 26.6562 92.6277 26.7417 92.6277 26.8486V38.9255C92.6277 39.0324 92.7132 39.1179 92.82 39.1179H95.5774C95.6843 39.1179 95.7698 39.0324 95.7698 38.9255V26.87C95.7912 26.7417 95.6843 26.6562 95.5774 26.6562Z" fill="white" fill-opacity="0.5"/>
<path d="M94.2094 25.1386C95.3073 25.1386 96.1973 24.2486 96.1973 23.1507C96.1973 22.0529 95.3073 21.1629 94.2094 21.1629C93.1115 21.1629 92.2215 22.0529 92.2215 23.1507C92.2215 24.2486 93.1115 25.1386 94.2094 25.1386Z" fill="white" fill-opacity="0.5"/>
</svg>
